<svg xmlns="http://www.w3.org/2000/svg" xmlns:xlink="http://www.w3.org/1999/xlink" width="149.807" height="70.028" viewBox="0 0 149.807 70.028">
  <defs>
    <clipPath id="clip-path">
      <rect id="Rectangle_1" data-name="Rectangle 1" width="149.807" height="70.028" fill="#333" opacity="0.69"/>
    </clipPath>
  </defs>
  <g id="Mask_Group_1" data-name="Mask Group 1" clip-path="url(#clip-path)">
    <path id="Path_157" data-name="Path 157" d="M6.2-38.366V-59h5.841l3.111,8.442q.283.857.539,1.777t.539,1.841h.127q.283-.921.539-1.841t.539-1.777L20.422-59h5.841v20.634H21.31v-6.095q0-.793.079-1.746t.175-1.953q.1-1,.222-1.953t.222-1.714h-.127l-1.714,4.951-2.54,6.826h-2.92l-2.54-6.826-1.651-4.952h-.125q.1.762.222,1.714t.222,1.953q.1,1,.175,1.953t.079,1.746v6.095Zm23.6,0V-59h5.46v20.634Zm8.994,0V-59h5.587l4.571,9.206,1.968,4.635h.127q-.1-.826-.222-1.809T50.6-48.984q-.1-1.032-.175-2.064t-.079-1.983V-59h5.2v20.634H49.965L45.394-47.6l-1.968-4.6H43.3q.19,1.777.444,3.873a33.28,33.28,0,0,1,.254,4v5.968Zm20.3,0V-59h5.46v20.634ZM6.3-15.417V-36.052h7.553a14.97,14.97,0,0,1,3.206.333,7.228,7.228,0,0,1,2.666,1.143,5.859,5.859,0,0,1,1.825,2.127,7.017,7.017,0,0,1,.688,3.253,7.24,7.24,0,0,1-.68,3.27,6.328,6.328,0,0,1-1.825,2.238,7.876,7.876,0,0,1-2.635,1.3,11.213,11.213,0,0,1-3.111.428H11.757v6.54Zm5.46-10.857h1.968a3.308,3.308,0,0,0,2.4-.762A2.885,2.885,0,0,0,16.9-29.2a2.188,2.188,0,0,0-.857-1.966,4.395,4.395,0,0,0-2.444-.571H11.756Zm16.549.825-.348,1.429h3.809l-.35-1.429q-.381-1.492-.762-3.238t-.762-3.3h-.127q-.349,1.586-.714,3.317T28.306-25.449ZM20.37-15.42l6.285-20.632h6.6l6.285,20.635H33.764L32.748-19.8H26.969l-1.016,4.381Zm20.1,0V-36.052h5.46v20.635Zm8.994,0V-36.052h5.587l4.571,9.206L61.6-22.211h.127q-.1-.826-.222-1.809t-.222-2.016q-.1-1.032-.175-2.064t-.079-1.983v-5.969h5.206v20.635H60.644l-4.571-9.236L54.1-29.258h-.127q.19,1.777.444,3.873a33.281,33.281,0,0,1,.254,4v5.969Zm24.232,0V-31.48h-5.46v-4.572H84.618v4.571h-5.46v16.064Zm12.931,0V-36.052h5.46v20.635Zm8.994,0V-36.052h5.587l4.571,9.206,1.968,4.635h.127q-.1-.826-.222-1.809t-.222-2.016q-.1-1.032-.174-2.064t-.079-1.983v-5.969h5.206v20.635H106.8l-4.571-9.236-1.968-4.6h-.127q.19,1.777.444,3.873a33.285,33.285,0,0,1,.254,4v5.966Zm29.819.381a12.484,12.484,0,0,1-4.063-.651,9.126,9.126,0,0,1-3.317-1.968,9.179,9.179,0,0,1-2.225-3.3,12.166,12.166,0,0,1-.807-4.619,12.109,12.109,0,0,1,.826-4.619,9.95,9.95,0,0,1,2.238-3.4,9.675,9.675,0,0,1,3.286-2.111,10.742,10.742,0,0,1,3.936-.73,8.96,8.96,0,0,1,3.952.81,10.163,10.163,0,0,1,2.776,1.921l-2.856,3.492a7.837,7.837,0,0,0-1.6-1.1,4.549,4.549,0,0,0-2.079-.428,4.541,4.541,0,0,0-1.937.412,4.655,4.655,0,0,0-1.556,1.175,5.331,5.331,0,0,0-1.032,1.873,8.015,8.015,0,0,0-.365,2.508,6.8,6.8,0,0,0,1.3,4.476,5.044,5.044,0,0,0,4.095,1.555,4.011,4.011,0,0,0,.873-.1,2.1,2.1,0,0,0,.715-.283v-2.86h-3.048v-4.444h7.873v9.841a9.406,9.406,0,0,1-2.952,1.793,10.638,10.638,0,0,1-4.033.746ZM6.3,7.531V-13.1h5.46V2.96h7.81V7.531Zm15.787,0V-13.1h5.46V7.531Zm8.994,0V-13.1h7.428a18.542,18.542,0,0,1,3.048.238,7.832,7.832,0,0,1,2.476.81A4.406,4.406,0,0,1,45.7-10.486a4.72,4.72,0,0,1,.619,2.526,5,5,0,0,1-.19,1.349,6.319,6.319,0,0,1-.524,1.3,4.666,4.666,0,0,1-.81,1.1,2.963,2.963,0,0,1-1.077.7v.127a5.366,5.366,0,0,1,2.524,1.6,4.677,4.677,0,0,1,1.032,3.222,5.519,5.519,0,0,1-.651,2.746,5.58,5.58,0,0,1-1.746,1.9A7.643,7.643,0,0,1,42.284,7.18a13.753,13.753,0,0,1-3.143.349ZM36.538-5.04h1.841a2.877,2.877,0,0,0,1.968-.571,1.95,1.95,0,0,0,.635-1.524A1.5,1.5,0,0,0,40.348-8.5a3.683,3.683,0,0,0-1.968-.412H36.538Zm0,8.381H38.76q3.173,0,3.173-2.286A1.746,1.746,0,0,0,41.16-.564a4.708,4.708,0,0,0-2.4-.476H36.538ZM49.468,7.534V-13.1h7.81a15.3,15.3,0,0,1,3.159.317,7.357,7.357,0,0,1,2.635,1.077,5.443,5.443,0,0,1,1.793,2.048,6.958,6.958,0,0,1,.667,3.222,6.881,6.881,0,0,1-.907,3.683A6.383,6.383,0,0,1,62.2-.472l4.476,8H60.58L57.025.611h-2.1v6.92Zm5.46-11.24H56.9q3.3,0,3.3-2.73a1.972,1.972,0,0,0-.841-1.841,4.821,4.821,0,0,0-2.46-.51H54.928ZM73.446-2.5,73.1-1.072h3.809L76.557-2.5q-.381-1.492-.762-3.239t-.762-3.3h-.127q-.349,1.586-.714,3.317T73.447-2.5ZM65.51,7.529,71.8-13.1h6.6L84.684,7.531H78.9L77.889,3.15H72.109L71.093,7.531Zm20.1,0V-13.1h7.809a15.3,15.3,0,0,1,3.159.317,7.357,7.357,0,0,1,2.635,1.077,5.443,5.443,0,0,1,1.793,2.048,6.958,6.958,0,0,1,.667,3.222,6.882,6.882,0,0,1-.907,3.683A6.383,6.383,0,0,1,98.342-.472l4.476,8H96.726L93.17.607H91.078V7.531ZM91.078-3.707h1.968q3.3,0,3.3-2.73a1.972,1.972,0,0,0-.841-1.841,4.821,4.821,0,0,0-2.46-.51H91.078ZM107.566,7.531V.42L101.339-13.1h5.841L108.7-8.787q.381,1.175.762,2.286t.793,2.317h.127q.412-1.206.81-2.317t.81-2.286l1.524-4.318h5.714L113.021.42V7.531Z" transform="translate(9.705 59.351)" fill="#333"/>
    <g id="Group_46" data-name="Group 46" transform="translate(3.754 0.168) rotate(45)">
      <g id="Group_45" data-name="Group 45">
        <path id="Path_122" data-name="Path 122" d="M28.5,32.8C24.868,29.66,2.571,9.363,0,0,9.279,2.606,29.622,24.9,32.759,28.533Z" fill="#333"/>
      </g>
    </g>
    <g id="Group_48" data-name="Group 48" transform="translate(3.728 43.536) rotate(45)">
      <g id="Group_47" data-name="Group 47" transform="translate(0 0)">
        <path id="Path_123" data-name="Path 123" d="M4.38,7.374,0,4.331,4.331,0,7.374,4.38Z" transform="translate(0)" fill="#333"/>
      </g>
    </g>
    <g id="Group_55" data-name="Group 55" transform="translate(3.388 54.227) rotate(45)">
      <path id="Path_121" data-name="Path 121" d="M11.264,11.209C9.3,9.387,7.142,7.938,4.465,7.858H3.833C1.566,7.858.362,3.765,0,1.8L1.8,0h.567A7.952,7.952,0,0,1,8.219,2.414C10.074,4.39,11.347,7.078,11.264,11.209Z" transform="translate(0 0)" fill="#333"/>
    </g>
  </g>
</svg>
