<svg xmlns="http://www.w3.org/2000/svg" xmlns:xlink="http://www.w3.org/1999/xlink" width="148.459" height="39.644" viewBox="0 0 148.459 39.644">
  <defs>
    <clipPath id="clip-path">
      <rect width="148.459" height="19.644" fill="none"/>
    </clipPath>
  </defs>
  <g id="Group_109" data-name="Group 109" transform="translate(-1701.984 -856)">
    <g id="Repeat_Grid_5" data-name="Repeat Grid 5" transform="translate(1701.984 876)" clip-path="url(#clip-path)">
      <g transform="translate(-593.984 -203.145)">
        <path id="Path_1" data-name="Path 1" d="M594.691,5270.081l16.523-16.522,16.522,16.522" transform="translate(0 -5049)" fill="none" stroke="#289d8f" stroke-linecap="round" stroke-width="2"/>
      </g>
      <g transform="translate(-560.984 -203.145)">
        <path id="Path_1-2" data-name="Path 1" d="M594.691,5270.081l16.523-16.522,16.522,16.522" transform="translate(0 -5049)" fill="none" stroke="#289d8f" stroke-linecap="round" stroke-width="2"/>
      </g>
      <g transform="translate(-527.984 -203.145)">
        <path id="Path_1-3" data-name="Path 1" d="M594.691,5270.081l16.523-16.522,16.522,16.522" transform="translate(0 -5049)" fill="none" stroke="#289d8f" stroke-linecap="round" stroke-width="2"/>
      </g>
      <g transform="translate(-494.984 -203.145)">
        <path id="Path_1-4" data-name="Path 1" d="M594.691,5270.081l16.523-16.522,16.522,16.522" transform="translate(0 -5049)" fill="none" stroke="#289d8f" stroke-linecap="round" stroke-width="2"/>
      </g>
      <g transform="translate(-461.984 -203.145)">
        <path id="Path_1-5" data-name="Path 1" d="M594.691,5270.081l16.523-16.522,16.522,16.522" transform="translate(0 -5049)" fill="none" stroke="#289d8f" stroke-linecap="round" stroke-width="2"/>
      </g>
    </g>
    <g id="Repeat_Grid_10" data-name="Repeat Grid 10" transform="translate(1701.984 856)" clip-path="url(#clip-path)">
      <g transform="translate(-593.984 -203.145)">
        <path id="Path_1-6" data-name="Path 1" d="M594.691,5270.081l16.523-16.522,16.522,16.522" transform="translate(0 -5049)" fill="none" stroke="#289d8f" stroke-linecap="round" stroke-width="2"/>
      </g>
      <g transform="translate(-560.984 -203.145)">
        <path id="Path_1-7" data-name="Path 1" d="M594.691,5270.081l16.523-16.522,16.522,16.522" transform="translate(0 -5049)" fill="none" stroke="#289d8f" stroke-linecap="round" stroke-width="2"/>
      </g>
      <g transform="translate(-527.984 -203.145)">
        <path id="Path_1-8" data-name="Path 1" d="M594.691,5270.081l16.523-16.522,16.522,16.522" transform="translate(0 -5049)" fill="none" stroke="#289d8f" stroke-linecap="round" stroke-width="2"/>
      </g>
      <g transform="translate(-494.984 -203.145)">
        <path id="Path_1-9" data-name="Path 1" d="M594.691,5270.081l16.523-16.522,16.522,16.522" transform="translate(0 -5049)" fill="none" stroke="#289d8f" stroke-linecap="round" stroke-width="2"/>
      </g>
      <g transform="translate(-461.984 -203.145)">
        <path id="Path_1-10" data-name="Path 1" d="M594.691,5270.081l16.523-16.522,16.522,16.522" transform="translate(0 -5049)" fill="none" stroke="#289d8f" stroke-linecap="round" stroke-width="2"/>
      </g>
    </g>
  </g>
</svg>
